<svg width="90.000000" height="91.000000" viewBox="0 0 90 91" fill="none" xmlns="http://www.w3.org/2000/svg" xmlns:xlink="http://www.w3.org/1999/xlink">
	<desc>
			Created with Pixso.
	</desc>
	<defs/>
	<rect id="Rectangle 181" x="28.500000" y="27.500000" width="61.000000" height="36.000000" stroke="#BC3324" stroke-opacity="1.000000" stroke-width="1.000000"/>
	<path id="9" d="M61.76 47.79Q62.03 46.51 62.03 44.98Q62.03 43.29 61.62 42.07Q61.2 40.85 60.47 40.06Q59.99 39.55 59.42 39.21Q59.11 39.03 58.76 38.89Q58.72 38.88 58.68 38.86Q57.74 38.51 56.68 38.51Q55.11 38.51 53.97 39.12Q53.38 39.43 52.94 39.88Q52.52 40.3 52.22 40.85Q51.61 41.98 51.61 43.57Q51.61 45.07 52.1 46.11Q52.49 46.94 53.13 47.45Q53.29 47.58 53.47 47.69Q53.51 47.72 53.55 47.74Q54.41 48.24 55.56 48.24Q56.37 48.24 56.91 48.02Q57.46 47.81 57.82 47.43Q57.83 47.43 57.83 47.42Q58.19 47.05 58.44 46.58L58.55 46.58Q58.5 47.64 58.13 48.46Q58.04 48.67 57.92 48.85Q57.55 49.39 56.89 49.73Q56 50.19 54.39 50.19Q53.84 50.19 53.42 50.15Q53 50.1 52.58 50.04L52.58 53.09Q52.98 53.15 53.56 53.17Q54.14 53.19 54.58 53.19Q56.17 53.19 57.39 52.83Q58.61 52.47 59.49 51.77Q59.8 51.52 60.07 51.24Q60.57 50.72 60.93 50.07Q61.49 49.07 61.76 47.79ZM56.01 41.8Q56.32 41.6 56.78 41.6Q57.09 41.6 57.33 41.73Q57.37 41.76 57.42 41.78Q57.46 41.81 57.49 41.84Q57.71 42.01 57.86 42.28Q58.03 42.58 58.11 42.96Q58.17 43.24 58.19 43.51Q58.19 43.62 58.19 43.72Q58.19 43.82 58.18 43.92Q58.14 44.19 58.01 44.46Q57.91 44.64 57.77 44.79Q57.65 44.93 57.49 45.04Q57.4 45.11 57.29 45.16Q57.04 45.27 56.74 45.27Q56.27 45.27 55.95 45.05Q55.81 44.95 55.7 44.8Q55.35 44.33 55.35 43.53Q55.35 42.52 55.73 42.06Q55.85 41.91 56.01 41.8Z" fill="#BC3324" fill-opacity="1.000000" fill-rule="evenodd"/>
	<circle id="Ellipse 50" r="11.500000" transform="matrix(-1 0 0 -1 57 79)" stroke="#BC3324" stroke-opacity="1.000000" stroke-width="1.000000"/>
	<circle id="Ellipse 51" r="11.500000" transform="matrix(-1 0 0 -1 12 43)" stroke="#BC3324" stroke-opacity="1.000000" stroke-width="1.000000"/>
	<circle id="Ellipse 52" r="11.500000" transform="matrix(-1 0 0 -1 57 12)" stroke="#BC3324" stroke-opacity="1.000000" stroke-width="1.000000"/>
</svg>
