<svg width="92.000000" height="62.047607" viewBox="0 0 92 62.0476" fill="none" xmlns="http://www.w3.org/2000/svg" xmlns:xlink="http://www.w3.org/1999/xlink">
	<desc>
			Created with Pixso.
	</desc>
	<defs>
		<clipPath id="clip321_540">
			<rect id="fi:arrow-right" rx="0.000000" width="69.000000" height="23.000000" transform="translate(92.500000 43.523804) rotate(180.000000)" fill="white" fill-opacity="0"/>
		</clipPath>
	</defs>
	<path id="Ellipse 31" d="M51.29 10.51Q45.09 4.29 36.5 2.58Q27.91 0.86 19.82 4.23Q11.73 7.59 6.86 14.91Q2 22.22 2 31.02Q2 39.82 6.86 47.13Q11.73 54.45 19.82 57.81Q27.91 61.18 36.5 59.46Q45.09 57.75 51.29 51.53L52.7 52.94Q46.08 59.59 36.89 61.42Q27.71 63.26 19.05 59.66Q10.4 56.06 5.2 48.24Q0 40.42 0 31.02Q0 21.62 5.2 13.8Q10.4 5.98 19.05 2.38Q27.71 -1.22 36.89 0.61Q46.08 2.45 52.7 9.1L51.29 10.51ZM52.68 9.1L52.7 9.1C53.1 9.5 53.1 10.12 52.7 10.51C52.3 10.91 51.68 10.91 51.29 10.51L51.29 10.48L52.68 9.1ZM51.29 51.55L51.29 51.53C51.68 51.13 52.3 51.13 52.7 51.52C53.1 51.92 53.1 52.54 52.7 52.94L52.68 52.94L51.29 51.55Z" fill="#1F1E1E" fill-opacity="1.000000" fill-rule="evenodd"/>
	<g clip-path="url(#clip321_540)">
		<path id="Vector" d="M87 31.02L27 31.02" stroke="#1F1E1E" stroke-opacity="1.000000" stroke-width="2.000000" stroke-linejoin="round" stroke-linecap="round"/>
		<path id="Vector" d="M34 38.02L27 31.02L34 24.02" stroke="#1F1E1E" stroke-opacity="1.000000" stroke-width="2.000000" stroke-linejoin="round" stroke-linecap="round"/>
	</g>
</svg>
