<svg width="141.000000" height="141.000000" viewBox="0 0 141 141" fill="none" xmlns="http://www.w3.org/2000/svg" xmlns:xlink="http://www.w3.org/1999/xlink">

	<path id="Ellipse 38" d="M141 70.5C141 109.43 109.43 141 70.5 141C31.56 141 0 109.43 0 70.5C0 31.56 31.56 0 70.5 0C109.43 0 141 31.56 141 70.5Z" fill="#1F1E1E" fill-opacity="1.000000" fill-rule="nonzero"/>
	<path id="Танцпол" d="M39.57 77L41.46 77L41.46 67.17L44.79 67.17L44.79 65.57L36.23 65.57L36.23 67.17L39.57 67.17L39.57 77ZM52.22 68.91Q51.38 68.18 49.74 68.18Q48.86 68.18 48.05 68.39Q47.25 68.6 46.61 68.94L47.21 70.24Q47.58 70.06 47.97 69.92Q48.18 69.84 48.39 69.78Q48.58 69.72 48.77 69.68Q49.2 69.59 49.65 69.59Q50.4 69.59 50.81 69.96Q50.82 69.97 50.83 69.97Q51.25 70.35 51.25 71.25L51.25 71.71L49.75 71.76Q47.73 71.83 46.73 72.5Q46.35 72.76 46.12 73.11Q45.74 73.68 45.74 74.51Q45.74 75.41 46.09 76Q46.28 76.31 46.55 76.54Q46.77 76.74 47.05 76.87Q47.66 77.15 48.43 77.15Q49.17 77.15 49.68 77Q50.19 76.85 50.58 76.54Q50.97 76.24 51.34 75.77L51.4 75.77L51.75 77L53.06 77L53.06 71.17Q53.06 69.77 52.35 69.04Q52.29 68.97 52.22 68.91ZM94.06 74.57Q94.34 73.73 94.34 72.65Q94.34 71.23 93.82 70.23Q93.46 69.53 92.9 69.06Q92.67 68.86 92.39 68.71Q92.35 68.68 92.31 68.66Q91.42 68.18 90.28 68.18Q89.01 68.18 88.09 68.71Q87.76 68.89 87.48 69.14Q86.99 69.59 86.67 70.23Q86.17 71.22 86.17 72.65Q86.17 73.73 86.47 74.57Q86.77 75.4 87.31 75.98Q87.54 76.22 87.81 76.42Q88.17 76.68 88.6 76.85Q89.34 77.15 90.23 77.15Q91.18 77.15 91.94 76.85Q92.46 76.65 92.87 76.31Q93.07 76.16 93.24 75.98Q93.78 75.4 94.06 74.57ZM57.47 71.82L57.47 68.35L55.63 68.35L55.63 77L57.47 77L57.47 73.26L61.52 73.26L61.52 77L63.36 77L63.36 68.35L61.52 68.35L61.52 71.82L57.47 71.82ZM73.21 80.04L74.92 80.04L74.92 75.58L73.68 75.58L73.68 68.35L71.84 68.35L71.84 75.55L67.83 75.55L67.83 68.35L65.99 68.35L65.99 77L73.21 77L73.21 80.04ZM84.06 77L84.06 68.35L76.5 68.35L76.5 77L78.35 77L78.35 69.8L82.21 69.8L82.21 77L84.06 77ZM101.71 77L103.57 77L103.57 68.35L97.74 68.35Q97.63 69.98 97.49 71.19Q97.35 72.41 97.17 73.26Q97 74.1 96.79 74.62Q96.58 75.14 96.33 75.37Q96.14 75.56 95.92 75.6Q95.86 75.61 95.8 75.61Q95.64 75.61 95.48 75.58Q95.32 75.55 95.19 75.5L95.19 76.95Q95.39 77.03 95.65 77.08Q95.91 77.12 96.23 77.12Q96.76 77.12 97.18 76.9Q97.33 76.82 97.47 76.71Q97.99 76.31 98.34 75.43Q98.69 74.55 98.92 73.15Q99.16 71.75 99.32 69.78L101.71 69.78L101.71 77ZM88.3 74.27Q88.07 73.6 88.07 72.65Q88.07 71.22 88.59 70.46Q88.73 70.25 88.92 70.1Q89.42 69.69 90.25 69.69Q91.03 69.69 91.51 70.04Q91.56 70.07 91.6 70.11Q92.02 70.45 92.22 71.05Q92.45 71.71 92.45 72.65Q92.45 73.6 92.22 74.27Q92.01 74.89 91.58 75.24Q91.55 75.27 91.51 75.3Q91.03 75.65 90.26 75.65Q89.5 75.65 89.01 75.3Q88.98 75.27 88.95 75.25Q88.51 74.9 88.3 74.27ZM50.12 72.9L51.24 72.86L51.24 73.61Q51.24 74.48 50.81 75Q50.72 75.11 50.61 75.21Q50.47 75.33 50.31 75.43Q49.76 75.75 49.03 75.75Q48.4 75.75 48.02 75.46Q47.95 75.41 47.9 75.35Q47.64 75.06 47.64 74.53Q47.64 74.11 47.81 73.79Q47.95 73.55 48.19 73.37Q48.75 72.95 50.12 72.9Z" fill="#FFFFFF" fill-opacity="1.000000" fill-rule="evenodd"/>
</svg>
